<?xml version="1.0" encoding="UTF-8" standalone="no"?>
<!-- Created with Inkscape (http://www.inkscape.org/) -->

<svg
   xmlns:dc="http://purl.org/dc/elements/1.1/"
   xmlns:cc="http://creativecommons.org/ns#"
   xmlns:rdf="http://www.w3.org/1999/02/22-rdf-syntax-ns#"
   xmlns:svg="http://www.w3.org/2000/svg"
   xmlns="http://www.w3.org/2000/svg"
   xmlns:sodipodi="http://sodipodi.sourceforge.net/DTD/sodipodi-0.dtd"
   xmlns:inkscape="http://www.inkscape.org/namespaces/inkscape"
   width="512"
   height="513"
   id="svg2"
   version="1.1"
   inkscape:version="0.91 r13725"
   sodipodi:docname="ingame-icons.svg"
   inkscape:export-filename="C:\Users\Chris\Desktop\babel\game\Assets\Graphics\Game\GUI\ingame-icons-action.png"
   inkscape:export-xdpi="45.805168"
   inkscape:export-ydpi="45.805168">
  <defs
     id="defs4" />
  <sodipodi:namedview
     id="base"
     pagecolor="#55406c"
     bordercolor="#666666"
     borderopacity="1.0"
     inkscape:pageopacity="1"
     inkscape:pageshadow="2"
     inkscape:zoom="0.53235865"
     inkscape:cx="882.91304"
     inkscape:cy="599.25002"
     inkscape:document-units="px"
     inkscape:current-layer="layer1"
     showgrid="false"
     inkscape:window-width="1918"
     inkscape:window-height="1053"
     inkscape:window-x="0"
     inkscape:window-y="0"
     inkscape:window-maximized="1"
     showborder="false"
     showguides="false"
     inkscape:guide-bbox="true"
     fit-margin-top="5"
     fit-margin-left="5"
     fit-margin-right="5"
     fit-margin-bottom="5"
     inkscape:showpageshadow="false"
     inkscape:snap-bbox="true"
     inkscape:snap-bbox-midpoints="false"
     inkscape:snap-object-midpoints="true">
    <sodipodi:guide
       orientation="0,1"
       position="299.66338,267.21842"
       id="guide3797" />
    <sodipodi:guide
       orientation="1,0"
       position="256.78969,387.1489"
       id="guide3799" />
    <inkscape:grid
       type="xygrid"
       id="grid3485"
       empspacing="5"
       visible="true"
       enabled="true"
       snapvisiblegridlinesonly="true"
       spacingx="5px"
       spacingy="5px"
       dotted="false" />
  </sodipodi:namedview>
  <metadata
     id="metadata7">
    <rdf:RDF>
      <cc:Work
         rdf:about="">
        <dc:format>image/svg+xml</dc:format>
        <dc:type
           rdf:resource="http://purl.org/dc/dcmitype/StillImage" />
        <dc:title />
      </cc:Work>
    </rdf:RDF>
  </metadata>
  <g
     inkscape:label="Icons"
     inkscape:groupmode="layer"
     id="layer1"
     transform="translate(6.5,-545.86218)"
     style="display:inline">
    <g
       id="play"
       transform="translate(-44.04768,8.36152)">
      <path
         style="fill:#ffffff;fill-opacity:0.8;stroke:#000000;stroke-width:3;stroke-miterlimit:4;stroke-opacity:1;stroke-dasharray:none"
         d="m 737.54768,-374.49936 c -138.0713,0 -250.0001,111.92881 -250.0001,250 0,138.07119 111.9288,250.00004 250.0001,250.00004 138.0713,0 250.0001,-111.92885 250.0001,-250.00004 0,-138.07119 -111.9288,-250 -250.0001,-250 z m 0,46 c 112.6621,0 204.0001,91.33775 204.0001,204 0,112.66224 -91.338,204.00004 -204.0001,204.00004 -112.6623,0 -204.0001,-91.3378 -204.0001,-204.00004 0,-112.66225 91.3378,-204 204.0001,-204 z"
         id="path4256"
         inkscape:connector-curvature="0" />
      <path
         sodipodi:nodetypes="cccc"
         style="fill:#ffffff;fill-opacity:0.8;stroke:#000000;stroke-width:3;stroke-miterlimit:4;stroke-opacity:1;stroke-dasharray:none;display:inline"
         d="m 633.09536,-239.63782 0,230.27696 L 892,-124.49934 z"
         id="path3042"
         inkscape:connector-curvature="0" />
    </g>
    <path
       inkscape:connector-curvature="0"
       id="path3907"
       d="m 2418.5,783.86214 c -138.0713,0 -250.0001,111.92882 -250.0001,249.99996 0,138.0712 111.9288,250.0001 250.0001,250.0001 138.0713,0 250.0001,-111.929 250.0001,-250.0001 0,-138.07124 -111.9288,-249.99996 -250.0001,-249.99996 z m 0,46 c 112.6621,0 204.0001,91.33786 204.0001,203.99996 0,112.6622 -91.338,204.0001 -204.0001,204.0001 -112.6623,0 -204.0001,-91.3379 -204.0001,-204.0001 0,-112.6621 91.3378,-203.99996 204.0001,-203.99996 z"
       style="fill:#ffffff;fill-opacity:0.8;stroke:#000000;stroke-width:3;stroke-miterlimit:4;stroke-opacity:1;stroke-dasharray:none" />
    <g
       id="pause"
       transform="translate(-100.5001,7.84379)">
      <path
         style="fill:#ffffff;fill-opacity:0.8;stroke:#000000;stroke-width:3;stroke-miterlimit:4;stroke-opacity:1;stroke-dasharray:none"
         d="m 1367.5,-372.48161 c -138.0713,0 -250.0001,111.92881 -250.0001,250 0,138.071195 111.9288,250.00004 250.0001,250.00004 138.0713,0 250.0001,-111.928845 250.0001,-250.00004 0,-138.07119 -111.9288,-250 -250.0001,-250 z m 0,46 c 112.6621,0 204.0001,91.33775 204.0001,204 0,112.662245 -91.338,204.000045 -204.0001,204.000045 -112.6623,0 -204.0001,-91.3378 -204.0001,-204.000045 0,-112.66225 91.3378,-204 204.0001,-204 z"
         id="path4271"
         inkscape:connector-curvature="0" />
      <g
         transform="translate(1069.5,-372.48155)"
         id="g3813"
         style="display:inline">
        <path
           style="fill:#ffffff;fill-opacity:0.8;stroke:#000000;stroke-width:3;stroke-miterlimit:4;stroke-opacity:1;stroke-dasharray:none"
           d="m 244.15625,89.34375 c -0.24502,0 -0.47686,0.01906 -0.71875,0.03125 -3.68877,-0.05705 -7.39197,1.29822 -10.21875,4.125 l -0.0312,1.0625 C 231.19752,96.99996 230,100.09489 230,103.5 c 0,102 0,204 0,306 0,3.40511 1.19752,6.50004 3.1875,8.9375 l 0.0312,1.0625 c 2.82678,2.82678 6.52998,4.18205 10.21875,4.125 0.11547,0.006 0.22755,-0.003 0.34375,0 0.12447,0.003 0.24973,0.0312 0.375,0.0312 l 24.6875,0 c 0.12527,0 0.25053,-0.0281 0.375,-0.0312 0.1162,-0.003 0.22828,0.006 0.34375,0 3.68877,0.0571 7.39197,-1.29822 10.21875,-4.125 l 0.0312,-1.0625 C 281.80248,416.00004 283,412.90511 283,409.5 c 0,-102 0,-204 0,-306 0,-3.40511 -1.19752,-6.50004 -3.1875,-8.9375 L 279.78125,93.5 c -2.82678,-2.82678 -6.52998,-4.182045 -10.21875,-4.125 -0.24189,-0.01219 -0.47373,-0.03125 -0.71875,-0.03125 z"
           transform="translate(-6.5,-6.5)"
           id="path3806"
           inkscape:connector-curvature="0"
           sodipodi:nodetypes="scccccccccsscccccccccss" />
        <path
           sodipodi:nodetypes="scccccccccsscccccccccss"
           inkscape:connector-curvature="0"
           id="path3811"
           d="m 333.65625,82.843725 c -0.24502,0 -0.47686,0.01906 -0.71875,0.03125 -3.68877,-0.05705 -7.39197,1.29822 -10.21875,4.125 l -0.0312,1.0625 c -1.99003,2.43746 -3.18755,5.53239 -3.18755,8.9375 0,101.999995 0,203.999995 0,305.999995 0,3.40511 1.19752,6.50005 3.1875,8.9375 l 0.0312,1.0625 c 2.82678,2.82678 6.52998,4.18205 10.21875,4.125 0.11547,0.006 0.22755,-0.003 0.34375,0 0.12447,0.003 0.24973,0.0312 0.375,0.0312 l 24.6875,0 c 0.12527,0 0.25053,-0.0281 0.375,-0.0312 0.1162,-0.003 0.22828,0.006 0.34375,0 3.68877,0.0571 7.39197,-1.29822 10.21875,-4.125 l 0.0312,-1.0625 c 1.99008,-2.43745 3.1876,-5.53239 3.1876,-8.9375 0,-102 0,-204 0,-305.999995 0,-3.40511 -1.19752,-6.50004 -3.1875,-8.9375 l -0.0312,-1.0625 c -2.82678,-2.82678 -6.52998,-4.182045 -10.21875,-4.125 -0.24189,-0.01219 -0.47373,-0.03125 -0.71875,-0.03125 z"
           style="fill:#ffffff;fill-opacity:0.8;stroke:#000000;stroke-width:3;stroke-miterlimit:4;stroke-opacity:1;stroke-dasharray:none" />
      </g>
    </g>
    <g
       id="forward">
      <path
         inkscape:connector-curvature="0"
         id="path4276"
         d="m 116.9999,210.36218 c -138.071295,0 -250.0001,111.92881 -250.0001,250 0,138.07119 111.928805,250.00004 250.0001,250.00004 138.0713,0 250.0001,-111.92885 250.0001,-250.00004 0,-138.07119 -111.9288,-250 -250.0001,-250 z m 0,46 c 112.6621,0 204.0001,91.33775 204.0001,204 0,112.66224 -91.338,204.00004 -204.0001,204.00004 -112.662295,0 -204.000095,-91.3378 -204.000095,-204.00004 0,-112.66225 91.3378,-204 204.000095,-204 z"
         style="fill:#ffffff;fill-opacity:0.8;stroke:#000000;stroke-width:3;stroke-miterlimit:4;stroke-opacity:1;stroke-dasharray:none" />
      <path
         inkscape:connector-curvature="0"
         id="rect3850-1"
         d="m 103.7187,293.20595 c -3.61769,0 -7.228,1.38419 -10,4.15625 l -76.718797,76.71875 c -5.5441,5.54413 -5.5441,14.48712 0,20.03125 l 17.4688,17.46875 c 5.5441,5.54413 14.4871,5.54413 20.0312,0 l 35.999997,-36 0,237.78125 c 0,7.84058 6.3157,14.15625 14.1563,14.15625 l 24.6875,0 c 7.8405,0 14.1562,-6.31567 14.1562,-14.15625 l 0,-237.78125 36,36 c 5.5441,5.54413 14.4871,5.54413 20.0313,0 l 17.4687,-17.46875 c 5.5441,-5.54413 5.5441,-14.48712 0,-20.03125 L 140.2812,297.3622 c -2.9139,-2.91388 -6.7621,-4.27407 -10.5625,-4.125 -0.1245,-0.003 -0.2498,-0.0312 -0.375,-0.0312 l -24.6875,0 c -0.1253,0 -0.2506,0.028 -0.375,0.0312 -0.185,-0.007 -0.3775,-0.0312 -0.5625,-0.0312 z"
         style="fill:#ffffff;fill-opacity:0.8;stroke:#000000;stroke-width:3;stroke-miterlimit:4;stroke-opacity:1;stroke-dasharray:none;display:inline" />
    </g>
    <g
       id="lift"
       transform="translate(-44.4999,-113.81249)">
      <path
         style="fill:#ffffff;fill-opacity:0.8;stroke:#000000;stroke-width:3;stroke-miterlimit:4;stroke-opacity:1;stroke-dasharray:none"
         d="m 741.9999,897.67468 c -138.0713,0 -250.0001,111.92882 -250.0001,250.00002 0,138.0712 111.9288,250 250.0001,250 138.0713,0 250.0001,-111.9288 250.0001,-250 0,-138.0712 -111.9288,-250.00002 -250.0001,-250.00002 z m 0,46 c 112.6621,0 204.0001,91.33772 204.0001,204.00002 0,112.6622 -91.338,204 -204.0001,204 -112.6623,0 -204.0001,-91.3378 -204.0001,-204 0,-112.6623 91.3378,-204.00002 204.0001,-204.00002 z"
         id="path4279"
         inkscape:connector-curvature="0" />
      <g
         transform="translate(491.9999,897.67469)"
         id="g4281"
         style="display:inline">
        <path
           style="fill:#ffffff;fill-opacity:0.8;stroke:#000000;stroke-width:3;stroke-miterlimit:4;stroke-opacity:1;stroke-dasharray:none"
           d="m 165.71875,82.84375 c -3.61769,0 -7.22794,1.384186 -10,4.15625 L 79,163.71875 c -5.544128,5.54413 -5.544128,14.48712 0,20.03125 l 17.46875,17.46875 c 5.54413,5.54413 14.48712,5.54413 20.03125,0 l 36,-36 0,237.78125 c 0,7.84058 6.31567,14.15625 14.15625,14.15625 l 24.6875,0 C 199.18433,417.15625 205.5,410.84058 205.5,403 l 0,-237.78125 36,36 c 5.54413,5.54413 14.48712,5.54413 20.03125,0 L 279,183.75 c 5.54413,-5.54413 5.54413,-14.48712 0,-20.03125 L 202.28125,87 c -2.91388,-2.913882 -6.76205,-4.274074 -10.5625,-4.125 -0.12447,-0.0032 -0.24973,-0.03125 -0.375,-0.03125 l -24.6875,0 c -0.12527,0 -0.25053,0.02805 -0.375,0.03125 -0.18497,-0.0073 -0.37742,-0.03125 -0.5625,-0.03125 z"
           id="rect3868"
           inkscape:connector-curvature="0" />
        <path
           style="fill:#ffffff;fill-opacity:0.8;stroke:#000000;stroke-width:3;stroke-miterlimit:4;stroke-opacity:1;stroke-dasharray:none"
           d="M 308.65625,82.84375 C 300.81567,82.84375 294.5,89.159419 294.5,97 l 0,237.78125 -36,-36 c -5.54413,-5.54413 -14.48712,-5.54413 -20.03125,0 L 221,316.25 c -5.54413,5.54413 -5.54413,14.48712 0,20.03125 L 297.71875,413 c 2.91388,2.91388 6.76205,4.27407 10.5625,4.125 0.12447,0.003 0.24973,0.0312 0.375,0.0312 l 24.6875,0 c 0.12527,0 0.25053,-0.0281 0.375,-0.0312 3.80045,0.14907 7.64862,-1.21112 10.5625,-4.125 L 421,336.28125 c 5.54413,-5.54413 5.54413,-14.48712 0,-20.03125 l -17.46875,-17.46875 c -5.54413,-5.54413 -14.48712,-5.54413 -20.03125,0 l -36,36 L 347.5,97 c 0,-7.840581 -6.31567,-14.15625 -14.15625,-14.15625 l -24.6875,0 z"
           id="rect3903"
           inkscape:connector-curvature="0" />
      </g>
    </g>
    <g
       id="back"
       transform="translate(-13.6838,-112.31247)">
      <path
         inkscape:connector-curvature="0"
         id="path4288"
         d="m 130.6837,897.67465 c -138.0712975,0 -250.0001,111.92875 -250.0001,250.00005 0,138.0712 111.9288025,250 250.0001,250 138.0713,0 250.0001,-111.9288 250.0001,-250 0,-138.0713 -111.9288,-250.00005 -250.0001,-250.00005 z m 0,46 c 112.6621,0 204.0001,91.33775 204.0001,204.00005 0,112.6622 -91.338,204 -204.0001,204 -112.662297,0 -204.000097,-91.3378 -204.000097,-204 0,-112.6623 91.3378,-204.00005 204.000097,-204.00005 z"
         style="fill:#ffffff;fill-opacity:0.8;stroke:#000000;stroke-width:3;stroke-miterlimit:4;stroke-opacity:1;stroke-dasharray:none" />
      <path
         inkscape:connector-curvature="0"
         id="rect3850"
         d="m 118.33995,980.51857 c -7.84058,0 -14.15625,6.31567 -14.15625,14.15625 l 0,237.78128 -35.999997,-36 c -5.54413,-5.5441 -14.487121,-5.5441 -20.03125,0 L 30.6837,1213.9248 c -5.54413,5.5442 -5.54413,14.4872 0,20.0313 l 76.71875,76.7187 c 2.91388,2.9139 6.76205,4.2741 10.5625,4.125 0.12447,0 0.24973,0.031 0.375,0.031 l 24.6875,0 c 0.12527,0 0.25053,-0.028 0.375,-0.031 3.80045,0.1491 7.64862,-1.2111 10.5625,-4.125 l 76.71875,-76.7187 c 5.54413,-5.5441 5.54413,-14.4871 0,-20.0313 l -17.46875,-17.4687 c -5.54413,-5.5441 -14.48712,-5.5441 -20.03125,0 l -36,36 0,-237.78128 c 0,-7.84058 -6.31567,-14.15625 -14.15625,-14.15625 l -24.6875,0 z"
         style="fill:#ffffff;fill-opacity:0.8;stroke:#000000;stroke-width:3;stroke-miterlimit:4;stroke-opacity:1;stroke-dasharray:none;display:inline" />
    </g>
    <g
       id="right">
      <path
         sodipodi:nodetypes="sssscccccssscccssssccsscsss"
         inkscape:connector-curvature="0"
         id="path3091"
         d="m 740.59779,304.31349 c -3.6177,0 -7.25919,1.38415 -10.03125,4.15625 l -17.46875,17.46875 c -5.54413,5.5442 -5.54413,14.48715 0,20.03125 l 36,36 -79.78125,0.25 -10.46875,0 -83.15625,83.46875 c -0.36966,26.30061 0,88.56767 0,113.56613 0,7.84058 6.4719,14.15625 14.3125,14.15625 l 24.6875,0 c 7.8405,0 14.15625,-6.31567 14.15625,-14.15625 l 0,-91.84738 52.4375,-52.4375 67.8125,0 -36,36 c -5.54413,5.5441 -5.54413,14.48715 0,20.03125 l 17.46875,17.46875 c 5.54413,5.5441 14.48712,5.5441 20.03125,0 l 76.71875,-76.71875 c 2.9139,-2.9138 4.27409,-6.762 4.125,-10.5625 0,-0.1244 0.0312,-0.2497 0.0312,-0.375 l 0,-24.6875 c 0,-0.1252 -0.0282,-0.2505 -0.0312,-0.375 0.14909,-3.8004 -1.2111,-7.6486 -4.125,-10.5625 l -76.71875,-76.71875 c -2.77206,-2.7721 -6.3823,-4.15625 -10,-4.15625 z"
         style="fill:#ffffff;fill-opacity:0.8;stroke:#000000;stroke-width:3;stroke-miterlimit:4;stroke-opacity:1;stroke-dasharray:none;display:inline" />
      <path
         style="fill:#ffffff;fill-opacity:0.8;stroke:#000000;stroke-width:3;stroke-miterlimit:4;stroke-opacity:1;stroke-dasharray:none"
         d="m 693.5,208.86218 c -138.07131,0 -250.0001,111.9288 -250.0001,250 0,138.0712 111.9288,250 250.0001,250 138.0713,0 250.00009,-111.9288 250.00009,-250 0,-138.0712 -111.9288,-250 -250.00009,-250 z m 0,46 c 112.6621,0 204.00009,91.3377 204.00009,204 0,112.6622 -91.33799,204 -204.00009,204 -112.6623,0 -204.0001,-91.3378 -204.0001,-204 0,-112.6623 91.3378,-204 204.0001,-204 z"
         id="path4290"
         inkscape:connector-curvature="0" />
    </g>
    <g
       id="pusher"
       inkscape:label="#pusher">
      <path
         inkscape:connector-curvature="0"
         id="path3924"
         transform="translate(-6.5,545.86218)"
         d="m 1850.0938,-865.78125 c -112.5448,0 -203.7813,91.23676 -203.7813,203.78125 0,112.54449 91.2368,203.78125 203.7813,203.78125 112.5441,0 203.7812,-91.23676 203.7812,-203.78125 0,-112.54449 -91.2368,-203.78125 -203.7812,-203.78125 z m -140.3126,141.8125 95.1563,0 19.4375,24.125 -19.4375,24.09375 25.75,34.9375 -23.8437,40.78125 -3.9688,0 15.0938,-39.0625 -37.3438,-36.65625 -46.5312,0 -37.3438,36.65625 15.0938,39.0625 -3.9688,0 -23.7812,-40.78125 25.6874,-34.9375 -19.4062,-24.09375 19.4062,-24.125 z m 205.0938,28.09375 9.4375,0 0,67.75 -9.4375,0 0,-67.75 z m 32.7812,11.15625 c 0.1685,-0.017 0.3582,0 0.5313,0 l 62.9063,0 c 2.77,0 5,2.23 5,5 l 0,35.4375 c 0,2.77 -2.23,5 -5,5 l -62.9063,0 c -2.77,0 -5,-2.23 -5,-5 l 0,-35.4375 c 0,-2.59688 1.9413,-4.74486 4.4687,-5 z m -66.5937,1.96875 27.8125,16.03125 0,9.4375 -27.8125,16.03125 0,-9.40625 11.4687,-6.625 -51.4062,0 0,-9.4375 51.4062,0 -11.4687,-6.625 0,-9.40625 z"
         style="fill:none;fill-opacity:0.8;stroke:none" />
      <g
         transform="translate(-201.40635,-1126.5001)"
         id="g3156">
        <path
           style="fill:#ffffff;fill-opacity:0.8;stroke:#000000;stroke-width:3;stroke-miterlimit:4;stroke-opacity:1;stroke-dasharray:none"
           d="m 2045.0001,760.36218 c -138.0713,0 -250.0001,111.9289 -250.0001,250.00012 0,138.0712 111.9288,250 250.0001,250 138.0713,0 250.0001,-111.9288 250.0001,-250 0,-138.07122 -111.9288,-250.00012 -250.0001,-250.00012 z m 0,46 c 112.6621,0 204.0001,91.3378 204.0001,204.00012 0,112.6622 -91.338,204 -204.0001,204 -112.6623,0 -204.0001,-91.3378 -204.0001,-204 0,-112.66232 91.3378,-204.00012 204.0001,-204.00012 z"
           id="path4390"
           inkscape:connector-curvature="0" />
        <g
           transform="translate(1795.0001,760.36224)"
           id="g4392"
           style="display:inline">
          <path
             style="fill:#ffffff;fill-opacity:0.8;stroke:#000000;stroke-width:3;stroke-miterlimit:4;stroke-opacity:1;stroke-dasharray:none"
             d="m 109.70177,188.03774 -19.43527,24.1129 19.43527,24.11291 -25.69408,34.9176 23.7835,40.78111 3.95293,0 -15.08704,-39.06817 37.35524,-36.63054 46.51287,0 37.35524,36.63054 -15.08703,39.06817 3.95293,0 23.84938,-40.78111 -25.75996,-34.9176 19.43526,-24.1129 -19.43526,-24.11291 -95.13398,0 z"
             id="path4394"
             inkscape:connector-curvature="0" />
          <g
             id="g4396"
             transform="matrix(1.4803921,0,0,1.4803921,-143.22882,-120.09803)"
             style="fill:#ffffff;fill-opacity:0.8;stroke:#000000;stroke-opacity:1">
            <rect
               y="227.11472"
               x="309.38586"
               height="45.770569"
               width="6.373117"
               id="rect4398"
               style="fill:#ffffff;fill-opacity:0.8;stroke:#000000;stroke-width:2.02649021;stroke-miterlimit:4;stroke-opacity:1;stroke-dasharray:none" />
            <rect
               ry="3.3774836"
               rx="3.3774836"
               y="234.64658"
               x="328.50522"
               height="30.706837"
               width="49.246815"
               id="rect4400"
               style="fill:#ffffff;fill-opacity:0.8;stroke:#000000;stroke-width:2.02649021;stroke-miterlimit:4;stroke-opacity:1;stroke-dasharray:none" />
            <g
               transform="translate(5.7937428,-2.1457672e-6)"
               id="g4402"
               style="fill:#ffffff;fill-opacity:0.8;stroke:#000000;stroke-opacity:1">
              <path
                 transform="matrix(0.67549671,0,0,0.67549671,90.956855,81.125827)"
                 style="fill:#ffffff;fill-opacity:0.8;stroke:#000000;stroke-width:3;stroke-miterlimit:4;stroke-opacity:1;stroke-dasharray:none"
                 d="m 280.96875,229.25 0,9.40625 11.46875,6.625 -51.40625,0 0,9.4375 51.40625,0 -11.46875,6.625 0,9.40625 27.8125,-16.03125 0,-9.4375 -27.8125,-16.03125 z"
                 id="path4404"
                 inkscape:connector-curvature="0" />
            </g>
          </g>
        </g>
      </g>
    </g>
    <g
       id="grabber"
       inkscape:label="#grabber">
      <path
         inkscape:connector-curvature="0"
         id="path3922"
         transform="translate(-6.5,545.86218)"
         d="m 1850,-290.78125 c -112.5445,0 -203.7812,91.23676 -203.7812,203.78125 0,112.544487 91.2367,203.78125 203.7812,203.78125 112.5445,0 203.7812,-91.236763 203.7812,-203.78125 0,-112.54449 -91.2367,-203.78125 -203.7812,-203.78125 z m -140.3125,141.8125 95.1563,0 19.4374,24.125 -19.4374,24.09375 25.75,34.9375 -23.8438,40.78125 -3.9688,0 15.0938,-39.0625 -37.3438,-36.65625 -46.5312,0 -37.3438,36.65625 15.0938,39.0625 -3.9688,0 L 1684,-65.8125 l 25.6875,-34.9375 -19.4063,-24.09375 19.4063,-24.125 z m 237.875,39.25 c 0.1685,-0.017 0.3581,0 0.5313,0 l 62.9062,0 c 2.77,0 5,2.23 5,5 l 0,35.4375 c 0,2.77 -2.23,5 -5,5 l -62.9062,0 c -2.77,0 -5,-2.23 -5,-5 l 0,-35.4375 c 0,-2.59688 1.9413,-4.74486 4.4687,-5 z m -64.2187,1.96875 0,9.40625 -11.4688,6.625 51.4062,0 0,9.4375 -51.4062,0 11.4688,6.625 0,9.40625 -27.8126,-16.03125 0,-9.4375 27.8126,-16.03125 z"
         style="fill:none;fill-opacity:0.8;stroke:none" />
      <g
         transform="translate(-773.4602,-549.99998)"
         id="g4440">
        <g
           transform="translate(2366.9602,758.86218)"
           id="g4406"
           style="display:inline">
          <path
             inkscape:connector-curvature="0"
             id="path4408"
             d="m 109.70177,188.03774 -19.43527,24.1129 19.43527,24.11291 -25.69408,34.9176 23.7835,40.78111 3.95293,0 -15.08704,-39.06817 37.35524,-36.63054 46.51287,0 37.35524,36.63054 -15.08703,39.06817 3.95293,0 23.84938,-40.78111 -25.75996,-34.9176 19.43526,-24.1129 -19.43526,-24.11291 -95.13398,0 z"
             style="fill:#ffffff;fill-opacity:0.8;stroke:#000000;stroke-width:3;stroke-miterlimit:4;stroke-opacity:1;stroke-dasharray:none" />
          <rect
             ry="5"
             rx="5"
             y="227.2709"
             x="343.08771"
             height="45.458157"
             width="72.904594"
             id="rect4410"
             style="fill:#ffffff;fill-opacity:0.8;stroke:#000000;stroke-width:3;stroke-miterlimit:4;stroke-opacity:1;stroke-dasharray:none" />
          <g
             transform="matrix(-1.4803921,0,0,1.4803921,698.9671,-120.09803)"
             id="g4412"
             style="fill:#ffffff;fill-opacity:0.8;stroke:#000000;stroke-width:2.02649021;stroke-miterlimit:4;stroke-opacity:1;stroke-dasharray:none">
            <path
               style="fill:#ffffff;fill-opacity:0.8;stroke:#000000;stroke-width:3;stroke-miterlimit:4;stroke-opacity:1;stroke-dasharray:none"
               d="m 283.34375,229.25 -27.8125,16.03125 0,9.4375 27.8125,16.03125 0,-9.40625 -11.46875,-6.625 51.40625,0 0,-9.4375 -51.40625,0 11.46875,-6.625 0,-9.40625 z"
               transform="matrix(-0.67549671,0,0,0.67549671,472.14998,81.125825)"
               id="path4414"
               inkscape:connector-curvature="0" />
          </g>
        </g>
        <path
           inkscape:connector-curvature="0"
           id="path4426"
           d="m 2616.9602,758.86212 c -138.0713,0 -250.0001,111.9289 -250.0001,250.00008 0,138.0712 111.9288,250 250.0001,250 138.0713,0 250.0001,-111.9288 250.0001,-250 0,-138.07118 -111.9288,-250.00008 -250.0001,-250.00008 z m 0,46 c 112.6621,0 204.0001,91.3378 204.0001,204.00008 0,112.6622 -91.338,204 -204.0001,204 -112.6623,0 -204.0001,-91.3378 -204.0001,-204 0,-112.66228 91.3378,-204.00008 204.0001,-204.00008 z"
           style="fill:#ffffff;fill-opacity:0.8;stroke:#000000;stroke-width:3;stroke-miterlimit:4;stroke-opacity:1;stroke-dasharray:none" />
      </g>
    </g>
    <g
       id="zapper">
      <path
         inkscape:connector-curvature="0"
         id="path3920"
         transform="translate(-6.5,545.86218)"
         d="m 1850,284.21875 c -112.5445,0 -203.7812,91.23676 -203.7812,203.78125 0,112.54449 91.2367,203.78125 203.7812,203.78125 112.5445,0 203.7812,-91.23676 203.7812,-203.78125 0,-112.54449 -91.2367,-203.78125 -203.7812,-203.78125 z m -146.1562,141.8125 95.125,0 19.4374,24.125 -19.4374,24.09375 25.7812,34.9375 -23.8438,40.78125 -3.9687,0 15.0937,-39.0625 -37.375,-36.65625 -46.5,0 -37.3437,36.65625 15.0625,39.0625 -3.9375,0 -23.7813,-40.78125 25.6876,-34.9375 -19.4376,-24.09375 19.4376,-24.125 z m 282.8124,6.90625 -3.5312,40.53125 18.0625,-9.84375 -4.5,19.21875 25.1563,5.25 -28.8126,8.34375 10.25,22.40625 -24.5937,-14.09375 1.25,38.3125 -18.1875,-29.15625 -15.25,13.125 0.2188,-24.9375 -19.0313,-5.4375 17.5,-12.4375 -19.6563,-18.5 24.9063,4.90625 5.1563,-26.09375 10.75,21.28125 20.3124,-32.875 z m -97,34.3125 27.7813,16.03125 0,9.4375 -27.7813,16.03125 0,-9.40625 11.4688,-6.625 -51.4375,0 0,-9.4375 51.4375,0 -11.4688,-6.625 0,-9.40625 z"
         style="fill:none;fill-opacity:0.8;stroke:none" />
      <g
         transform="translate(-1329.3154,25.00002)"
         id="g4448">
        <g
           transform="translate(2916.9602,758.86218)"
           id="g4416"
           style="display:inline">
          <path
             style="fill:#ffffff;fill-opacity:0.8;stroke:#000000;stroke-width:3;stroke-miterlimit:4;stroke-opacity:1;stroke-dasharray:none"
             d="m 109.70177,188.03774 -19.43527,24.1129 19.43527,24.11291 -25.69408,34.9176 23.7835,40.78111 3.95293,0 -15.08704,-39.06817 37.35524,-36.63054 46.51287,0 37.35524,36.63054 -15.08703,39.06817 3.95293,0 23.84938,-40.78111 -25.75996,-34.9176 19.43526,-24.1129 -19.43526,-24.11291 -95.13398,0 z"
             id="path4418"
             inkscape:connector-curvature="0" />
          <g
             id="g4420"
             transform="matrix(1.4803921,0,0,1.4803921,-120.13746,-120.09803)"
             style="stroke-width:2.02649021;stroke-miterlimit:4;stroke-dasharray:none">
            <path
               style="fill:#ffffff;fill-opacity:0.8;stroke:#000000;stroke-width:3;stroke-miterlimit:4;stroke-opacity:1;stroke-dasharray:none"
               d="m 295.5,229.25 0,9.40625 11.46875,6.625 -51.4375,0 0,9.4375 51.4375,0 -11.46875,6.625 0,9.40625 27.78125,-16.03125 0,-9.4375 L 295.5,229.25 z"
               transform="matrix(0.67549671,0,0,0.67549671,81.15246,81.125825)"
               id="path4422"
               inkscape:connector-curvature="0" />
          </g>
          <path
             transform="matrix(0.76879458,0,0,0.80178828,154.75477,131.99507)"
             style="fill:#ffffff;fill-opacity:0.8;stroke:#000000;stroke-width:3.82108092;stroke-miterlimit:4;stroke-opacity:1;stroke-dasharray:none"
             inkscape:transform-center-x="-2.7149221"
             inkscape:transform-center-y="-2.209375"
             d="m 298.89838,168.06342 1.61202,47.80439 -23.66279,-36.37293 -19.82648,16.37362 0.29475,-31.1115 -24.75994,-6.7793 22.76455,-15.52948 -25.58102,-23.05169 32.42038,6.09688 6.68317,-32.550393 14.01075,26.581073 26.41105,-41.037614 -4.60929,50.571014 23.51363,-12.27317 -5.86562,23.97249 32.73021,6.52635 -37.49036,10.42315 13.33697,27.92739 z"
             id="path4424"
             inkscape:connector-curvature="0"
             sodipodi:nodetypes="ccccccccccccccccccc" />
        </g>
        <path
           style="fill:#ffffff;fill-opacity:0.8;stroke:#000000;stroke-width:3;stroke-miterlimit:4;stroke-opacity:1;stroke-dasharray:none"
           d="m 3172.8154,758.86212 c -138.0713,0 -250.0001,111.9288 -250.0001,250.00008 0,138.0712 111.9288,250 250.0001,250 138.0713,0 250.0001,-111.9288 250.0001,-250 0,-138.07128 -111.9288,-250.00008 -250.0001,-250.00008 z m 0,46 c 112.6621,0 204.0001,91.3377 204.0001,204.00008 0,112.6622 -91.338,204 -204.0001,204 -112.6623,0 -204.0001,-91.3378 -204.0001,-204 0,-112.66238 91.3378,-204.00008 204.0001,-204.00008 z"
           id="path4428"
           inkscape:connector-curvature="0" />
      </g>
    </g>
    <g
       id="left"
       transform="matrix(-1,0,0,1,1962,0)">
      <path
         style="fill:#ffffff;fill-opacity:0.8;stroke:#000000;stroke-width:3;stroke-miterlimit:4;stroke-opacity:1;stroke-dasharray:none;display:inline"
         d="m 740.59779,304.31349 c -3.6177,0 -7.25919,1.38415 -10.03125,4.15625 l -17.46875,17.46875 c -5.54413,5.5442 -5.54413,14.48715 0,20.03125 l 36,36 -79.78125,0.25 -10.46875,0 -83.15625,83.46875 c -0.36966,26.30061 0,88.56767 0,113.56613 0,7.84058 6.4719,14.15625 14.3125,14.15625 l 24.6875,0 c 7.8405,0 14.15625,-6.31567 14.15625,-14.15625 l 0,-91.84738 52.4375,-52.4375 67.8125,0 -36,36 c -5.54413,5.5441 -5.54413,14.48715 0,20.03125 l 17.46875,17.46875 c 5.54413,5.5441 14.48712,5.5441 20.03125,0 l 76.71875,-76.71875 c 2.9139,-2.9138 4.27409,-6.762 4.125,-10.5625 0,-0.1244 0.0312,-0.2497 0.0312,-0.375 l 0,-24.6875 c 0,-0.1252 -0.0282,-0.2505 -0.0312,-0.375 0.14909,-3.8004 -1.2111,-7.6486 -4.125,-10.5625 l -76.71875,-76.71875 c -2.77206,-2.7721 -6.3823,-4.15625 -10,-4.15625 z"
         id="path3114"
         inkscape:connector-curvature="0"
         sodipodi:nodetypes="sssscccccssscccssssccsscsss" />
      <path
         inkscape:connector-curvature="0"
         id="path3116"
         d="m 693.5,208.86218 c -138.07131,0 -250.0001,111.9288 -250.0001,250 0,138.0712 111.9288,250 250.0001,250 138.0713,0 250.00009,-111.9288 250.00009,-250 0,-138.0712 -111.9288,-250 -250.00009,-250 z m 0,46 c 112.6621,0 204.00009,91.3377 204.00009,204 0,112.6622 -91.33799,204 -204.00009,204 -112.6623,0 -204.0001,-91.3378 -204.0001,-204 0,-112.6623 91.3378,-204 204.0001,-204 z"
         style="fill:#ffffff;fill-opacity:0.8;stroke:#000000;stroke-width:3;stroke-miterlimit:4;stroke-opacity:1;stroke-dasharray:none" />
    </g>
    <g
       id="map">
      <path
         inkscape:connector-curvature="0"
         id="path4260"
         d="m 1268.5,783.86212 c -138.0713,0 -250.0001,111.92882 -250.0001,249.99998 0,138.0712 111.9288,250.0001 250.0001,250.0001 138.0713,0 250.0001,-111.929 250.0001,-250.0001 0,-138.07126 -111.9288,-249.99998 -250.0001,-249.99998 z m 0,46 c 112.6621,0 204.0001,91.33782 204.0001,203.99998 0,112.6622 -91.338,204.0001 -204.0001,204.0001 -112.6623,0 -204.0001,-91.3379 -204.0001,-204.0001 0,-112.66216 91.3378,-203.99998 204.0001,-203.99998 z"
         style="fill:#ffffff;fill-opacity:0.8;stroke:#000000;stroke-width:3;stroke-miterlimit:4;stroke-opacity:1;stroke-dasharray:none" />
      <path
         inkscape:connector-curvature="0"
         id="rect3120"
         d="m 1126.5418,953.84038 c -3.6241,0 -6.5418,2.92538 -6.5418,6.55916 l 0,146.92516 c 0,3.6338 2.9177,6.5592 6.5418,6.5592 l 211.956,0 c 3.6242,0 6.5418,-2.9254 6.5418,-6.5592 l 0,-56.4908 71.9604,46.6521 0,-127.24772 -71.9604,38.16602 0,-48.00476 c 0,-3.63378 -2.9176,-6.55916 -6.5418,-6.55916 l -211.956,0 z"
         style="fill:#ffffff;fill-opacity:0.8;stroke:#000000;stroke-width:3;stroke-miterlimit:4;stroke-opacity:1" />
    </g>
    <g
       style="display:inline"
       id="delete">
      <path
         inkscape:connector-curvature="0"
         id="path3778"
         d="m 118.5,-366.13784 c -138.07119,0 -250,111.92881 -250,250 0,138.07119 111.92881,250.00004 250,250.00004 138.07119,0 250,-111.92885 250,-250.00004 0,-138.07119 -111.92881,-250 -250,-250 z m 0,46 c 112.66225,0 204,91.33775 204,204 0,112.66224 -91.33775,204.00004 -204,204.00004 -112.66225,0 -204,-91.3378 -204,-204.00004 0,-112.66225 91.33775,-204 204,-204 z"
         style="fill:#ffffff;fill-opacity:0.8;stroke:#000000;stroke-width:3;stroke-miterlimit:4;stroke-opacity:1;stroke-dasharray:none" />
      <path
         inkscape:connector-curvature="0"
         id="rect3923"
         d="m 247.92974,-245.56756 c -11.36731,-11.3673 -48.56757,7.50518 -83.37329,42.3109 L 118.5,-157.2002 72.44355,-203.25666 c -34.80572,-34.80572 -72.00598,-53.6782 -83.373287,-42.3109 -11.367308,11.36731 7.505177,48.56757 42.310897,83.37329 l 46.05646,46.05645 -46.05646,46.05645 C -3.42456,-35.27565 -22.297045,1.92461 -10.929737,13.29192 0.43757,24.65922 37.63783,5.78674 72.44355,-29.01898 L 118.5,-75.07544 l 46.05645,46.05646 c 34.80572,34.80572 72.00598,53.6782 83.37329,42.3109 11.3673,-11.36731 -7.50518,-48.56757 -42.3109,-83.37329 l -46.05646,-46.05645 46.05646,-46.05645 c 34.80572,-34.80572 53.6782,-72.00598 42.3109,-83.37329 z"
         style="fill:#ffffff;fill-opacity:0.8;stroke:#000000;stroke-width:3;stroke-miterlimit:4;stroke-opacity:1;stroke-dasharray:none;display:inline" />
    </g>
  </g>
  <g
     inkscape:groupmode="layer"
     id="layer3"
     inkscape:label="ignore"
     style="display:none">
    <g
       style="display:inline"
       id="g3869"
       transform="translate(1940.6756,698.90192)">
      <path
         sodipodi:nodetypes="ccccc"
         inkscape:connector-curvature="0"
         id="rect3844"
         d="m 181.71275,331.44627 80.84343,25.71271 -76.511,21.89232 -80.84343,-25.71271 z"
         style="fill:#ffffff;fill-opacity:0.8;stroke:#000000;stroke-width:3;stroke-miterlimit:4;stroke-opacity:1" />
      <path
         style="fill:#ffffff;fill-opacity:0.8;stroke:#000000;stroke-width:3;stroke-miterlimit:4;stroke-opacity:1"
         d="m 258.28175,309.52607 80.84343,25.71271 -76.511,21.89232 -80.84343,-25.71271 z"
         id="path3847"
         inkscape:connector-curvature="0"
         sodipodi:nodetypes="ccccc" />
      <path
         style="fill:#ffffff;fill-opacity:0.8;stroke:#000000;stroke-width:3;stroke-miterlimit:4;stroke-opacity:1"
         d="m 334.77735,287.63335 80.84343,25.71271 -76.511,21.89232 -80.84343,-25.71271 z"
         id="path3849"
         inkscape:connector-curvature="0"
         sodipodi:nodetypes="ccccc" />
      <path
         sodipodi:nodetypes="ccccc"
         inkscape:connector-curvature="0"
         id="path3851"
         d="m 255.64972,262.18743 80.84343,25.71271 -76.511,21.89232 -80.84343,-25.71271 z"
         style="fill:#ffffff;fill-opacity:0.8;stroke:#000000;stroke-width:3;stroke-miterlimit:4;stroke-opacity:1" />
      <path
         sodipodi:nodetypes="ccccc"
         inkscape:connector-curvature="0"
         id="path3855"
         d="m 174.81761,163.72656 80.84343,25.71271 -76.511,21.89232 -80.843423,-25.71271 z"
         style="fill:#ffffff;fill-opacity:0.8;stroke:#000000;stroke-width:3;stroke-miterlimit:4;stroke-opacity:1" />
      <path
         style="fill:#ffffff;fill-opacity:0.8;stroke:#000000;stroke-width:3;stroke-miterlimit:4;stroke-opacity:1"
         d="m 332.15816,240.29557 80.84343,25.71271 -76.511,21.89232 -80.84342,-25.71271 z"
         id="path3857"
         inkscape:connector-curvature="0"
         sodipodi:nodetypes="ccccc" />
      <path
         style="fill:#ffffff;fill-opacity:0.8;stroke:#000000;stroke-width:3;stroke-miterlimit:4;stroke-opacity:1"
         d="m 94.615072,187.59281 82.981968,26.3889 0.0611,69.62127 -83.015562,-26.392 z"
         id="path3865"
         inkscape:connector-curvature="0"
         sodipodi:nodetypes="ccccc" />
      <path
         sodipodi:nodetypes="ccccc"
         inkscape:connector-curvature="0"
         id="path3867"
         d="m 259.31737,191.50747 -78.79542,22.52578 0.12785,69.52975 78.72173,-22.40045 z"
         style="fill:#ffffff;fill-opacity:0.8;stroke:#000000;stroke-width:3;stroke-miterlimit:4;stroke-opacity:1" />
    </g>
    <g
       style="display:inline"
       id="g4300"
       transform="translate(199.47184,647.03012)">
      <path
         inkscape:connector-curvature="0"
         id="rect4049"
         d="m 109.70177,188.03774 -19.43527,24.1129 19.43527,24.11291 -25.69408,34.9176 23.7835,40.78111 3.95293,0 -15.08704,-39.06817 37.35524,-36.63054 46.51287,0 37.35524,36.63054 -15.08703,39.06817 3.95293,0 23.84938,-40.78111 -25.75996,-34.9176 19.43526,-24.1129 -19.43526,-24.11291 -95.13398,0 z"
         style="fill:#ffffff;fill-opacity:0.8;stroke:#000000;stroke-width:3;stroke-miterlimit:4;stroke-opacity:1;stroke-dasharray:none" />
      <g
         style="fill:#ffffff;fill-opacity:0.8;stroke:#000000;stroke-opacity:1"
         transform="matrix(1.4803921,0,0,1.4803921,-143.22882,-120.09803)"
         id="g4092">
        <rect
           style="fill:#ffffff;fill-opacity:0.8;stroke:#000000;stroke-width:2.02649021;stroke-miterlimit:4;stroke-opacity:1;stroke-dasharray:none"
           id="rect4066"
           width="6.373117"
           height="45.770569"
           x="309.38586"
           y="227.11472" />
        <rect
           style="fill:#ffffff;fill-opacity:0.8;stroke:#000000;stroke-width:2.02649021;stroke-miterlimit:4;stroke-opacity:1;stroke-dasharray:none"
           id="rect4068"
           width="49.246815"
           height="30.706837"
           x="328.50522"
           y="234.64658"
           rx="3.3774836"
           ry="3.3774836" />
        <g
           style="fill:#ffffff;fill-opacity:0.8;stroke:#000000;stroke-opacity:1"
           id="g4087"
           transform="translate(5.7937428,-2.1457672e-6)">
          <path
             inkscape:connector-curvature="0"
             id="rect4070"
             transform="matrix(0.67549671,0,0,0.67549671,90.956855,81.125827)"
             d="m 280.96875,229.25 0,9.40625 11.46875,6.625 -51.40625,0 0,9.4375 51.40625,0 -11.46875,6.625 0,9.40625 27.8125,-16.03125 0,-9.4375 -27.8125,-16.03125 z"
             style="fill:#ffffff;fill-opacity:0.8;stroke:#000000;stroke-width:3;stroke-miterlimit:4;stroke-opacity:1;stroke-dasharray:none" />
        </g>
      </g>
    </g>
    <g
       style="display:inline"
       id="g4315"
       transform="translate(749.47184,647.68782)">
      <path
         style="fill:#ffffff;fill-opacity:0.8;stroke:#000000;stroke-width:3;stroke-miterlimit:4;stroke-opacity:1;stroke-dasharray:none"
         d="m 109.70177,188.03774 -19.43527,24.1129 19.43527,24.11291 -25.69408,34.9176 23.7835,40.78111 3.95293,0 -15.08704,-39.06817 37.35524,-36.63054 46.51287,0 37.35524,36.63054 -15.08703,39.06817 3.95293,0 23.84938,-40.78111 -25.75996,-34.9176 19.43526,-24.1129 -19.43526,-24.11291 -95.13398,0 z"
         id="path4120"
         inkscape:connector-curvature="0" />
      <rect
         style="fill:#ffffff;fill-opacity:0.8;stroke:#000000;stroke-width:3;stroke-miterlimit:4;stroke-opacity:1;stroke-dasharray:none"
         id="rect4126"
         width="72.904594"
         height="45.458157"
         x="343.08771"
         y="227.2709"
         rx="5"
         ry="5" />
      <g
         style="fill:#ffffff;fill-opacity:0.8;stroke:#000000;stroke-width:2.02649021;stroke-miterlimit:4;stroke-opacity:1;stroke-dasharray:none"
         id="g4128"
         transform="matrix(-1.4803921,0,0,1.4803921,698.9671,-120.09803)">
        <path
           inkscape:connector-curvature="0"
           id="rect4130"
           transform="matrix(-0.67549671,0,0,0.67549671,472.14998,81.125825)"
           d="m 283.34375,229.25 -27.8125,16.03125 0,9.4375 27.8125,16.03125 0,-9.40625 -11.46875,-6.625 51.40625,0 0,-9.4375 -51.40625,0 11.46875,-6.625 0,-9.40625 z"
           style="fill:#ffffff;fill-opacity:0.8;stroke:#000000;stroke-width:3;stroke-miterlimit:4;stroke-opacity:1;stroke-dasharray:none" />
      </g>
    </g>
    <g
       style="display:inline"
       id="g4326"
       transform="translate(1299.4718,647.03012)">
      <path
         inkscape:connector-curvature="0"
         id="path4144"
         d="m 109.70177,188.03774 -19.43527,24.1129 19.43527,24.11291 -25.69408,34.9176 23.7835,40.78111 3.95293,0 -15.08704,-39.06817 37.35524,-36.63054 46.51287,0 37.35524,36.63054 -15.08703,39.06817 3.95293,0 23.84938,-40.78111 -25.75996,-34.9176 19.43526,-24.1129 -19.43526,-24.11291 -95.13398,0 z"
         style="fill:#ffffff;fill-opacity:0.8;stroke:#000000;stroke-width:3;stroke-miterlimit:4;stroke-opacity:1;stroke-dasharray:none" />
      <g
         style="stroke-width:2.02649021;stroke-miterlimit:4;stroke-dasharray:none"
         transform="matrix(1.4803921,0,0,1.4803921,-120.13746,-120.09803)"
         id="g4148">
        <path
           inkscape:connector-curvature="0"
           id="rect4150"
           transform="matrix(0.67549671,0,0,0.67549671,81.15246,81.125825)"
           d="m 295.5,229.25 0,9.40625 11.46875,6.625 -51.4375,0 0,9.4375 51.4375,0 -11.46875,6.625 0,9.40625 27.78125,-16.03125 0,-9.4375 L 295.5,229.25 z"
           style="fill:#ffffff;fill-opacity:0.8;stroke:#000000;stroke-width:3;stroke-miterlimit:4;stroke-opacity:1;stroke-dasharray:none" />
      </g>
      <path
         sodipodi:nodetypes="ccccccccccccccccccc"
         inkscape:connector-curvature="0"
         id="path4156"
         d="m 298.89838,168.06342 1.61202,47.80439 -23.66279,-36.37293 -19.82648,16.37362 0.29475,-31.1115 -24.75994,-6.7793 22.76455,-15.52948 -25.58102,-23.05169 32.42038,6.09688 6.68317,-32.550393 14.01075,26.581073 26.41105,-41.037614 -4.60929,50.571014 23.51363,-12.27317 -5.86562,23.97249 32.73021,6.52635 -37.49036,10.42315 13.33697,27.92739 z"
         inkscape:transform-center-y="-2.209375"
         inkscape:transform-center-x="-2.7149221"
         style="fill:#ffffff;fill-opacity:0.8;stroke:#000000;stroke-width:3.82108092;stroke-miterlimit:4;stroke-opacity:1;stroke-dasharray:none"
         transform="matrix(0.76879458,0,0,0.80178828,154.75477,131.99507)" />
    </g>
  </g>
</svg>
